HIERARCHY
ROOT Hips
{
	OFFSET 0.000000 0.000000 0.000000
	CHANNELS 6 Xposition Yposition Zposition Zrotation Yrotation Xrotation 
	JOINT LHipJoint
	{
		OFFSET 0.000000 0.000000 0.000000
		CHANNELS 3 Zrotation Yrotation Xrotation
		JOINT LeftUpLeg
		{
			OFFSET 1.363060 -1.794630 0.839290
			CHANNELS 3 Zrotation Yrotation Xrotation
			JOINT LeftLeg
			{
				OFFSET 2.448110 -6.726130 0.000000
				CHANNELS 3 Zrotation Yrotation Xrotation
				JOINT LeftFoot
				{
					OFFSET 2.562200 -7.039590 0.000000
					CHANNELS 3 Zrotation Yrotation Xrotation
					JOINT LeftToeBase
					{
						OFFSET 0.157640 -0.433110 2.322550
						CHANNELS 3 Zrotation Yrotation Xrotation
						End Site
						{
							OFFSET 0.000000 0.000000 0.000000
						}
					}
				}
			}
		}
	}
	JOINT RHipJoint
	{
		OFFSET 0.000000 0.000000 0.000000
		CHANNELS 3 Zrotation Yrotation Xrotation
		JOINT RightUpLeg
		{
			OFFSET -1.305520 -1.794630 0.839290
			CHANNELS 3 Zrotation Yrotation Xrotation
			JOINT RightLeg
			{
				OFFSET -2.542530 -6.985550 0.000000
				CHANNELS 3 Zrotation Yrotation Xrotation
				JOINT RightFoot
				{
					OFFSET -2.568260 -7.056230 0.000000
					CHANNELS 3 Zrotation Yrotation Xrotation
					JOINT RightToeBase
					{
						OFFSET -0.164730 -0.452590 2.363150
						CHANNELS 3 Zrotation Yrotation Xrotation
						End Site
						{
							OFFSET 0.000000 0.000000 0.000000
						}
					}
				}
			}
		}
	}
	JOINT LowerBack
	{
		OFFSET 0.000000 0.000000 0.000000
		CHANNELS 3 Zrotation Yrotation Xrotation
		JOINT Spine
		{
			OFFSET 0.028270 2.035590 -0.193380
			CHANNELS 3 Zrotation Yrotation Xrotation
			JOINT Spine1
			{
				OFFSET 0.056720 2.048850 -0.042750
				CHANNELS 3 Zrotation Yrotation Xrotation
				JOINT Neck
				{
					OFFSET 0.000000 0.000000 0.000000
					CHANNELS 3 Zrotation Yrotation Xrotation
					JOINT Neck1
					{
						OFFSET -0.054170 1.746240 0.172020
						CHANNELS 3 Zrotation Yrotation Xrotation
						JOINT Head
						{
							OFFSET 0.104070 1.761360 -0.123970
							CHANNELS 3 Zrotation Yrotation Xrotation
							End Site
							{
								OFFSET 0.000000 0.000000 0.000000
							}
						}
					}
				}
				JOINT LeftShoulder
				{
					OFFSET 0.000000 0.000000 0.000000
					CHANNELS 3 Zrotation Yrotation Xrotation
					JOINT LeftArm
					{
						OFFSET 3.362410 1.200890 -0.311210
						CHANNELS 3 Zrotation Yrotation Xrotation
						JOINT LeftForeArm
						{
							OFFSET 4.983000 -0.000000 -0.000000
							CHANNELS 3 Zrotation Yrotation Xrotation
							JOINT LeftHand
							{
								OFFSET 3.483560 -0.000000 -0.000000
								CHANNELS 3 Zrotation Yrotation Xrotation
								JOINT LeftFingerBase
								{
									OFFSET 0.000000 0.000000 0.000000
									CHANNELS 3 Zrotation Yrotation Xrotation
									JOINT LeftHandIndex1
									{
										OFFSET 0.715260 -0.000000 -0.000000
										CHANNELS 3 Zrotation Yrotation Xrotation
										End Site
										{
											OFFSET 0.000000 0.000000 0.000000
										}
									}
								}
								JOINT LThumb
								{
									OFFSET 0.000000 0.000000 0.000000
									CHANNELS 3 Zrotation Yrotation Xrotation
									End Site
									{
										OFFSET 0.000000 0.000000 0.000000
									}
								}
							}
						}
					}
				}
				JOINT RightShoulder
				{
					OFFSET 0.000000 0.000000 0.000000
					CHANNELS 3 Zrotation Yrotation Xrotation
					JOINT RightArm
					{
						OFFSET -3.136600 1.374050 -0.404650
						CHANNELS 3 Zrotation Yrotation Xrotation
						JOINT RightForeArm
						{
							OFFSET -5.241900 -0.000000 -0.000000
							CHANNELS 3 Zrotation Yrotation Xrotation
							JOINT RightHand
							{
								OFFSET -3.444170 -0.000000 -0.000000
								CHANNELS 3 Zrotation Yrotation Xrotation
								JOINT RightFingerBase
								{
									OFFSET 0.000000 0.000000 0.000000
									CHANNELS 3 Zrotation Yrotation Xrotation
									JOINT RightHandIndex1
									{
										OFFSET -0.622530 -0.000000 -0.000000
										CHANNELS 3 Zrotation Yrotation Xrotation
										End Site
										{
											OFFSET 0.000000 0.000000 0.000000
										}
									}
								}
								JOINT RThumb
								{
									OFFSET 0.000000 0.000000 0.000000
									CHANNELS 3 Zrotation Yrotation Xrotation
									End Site
									{
										OFFSET 0.000000 0.000000 0.000000
									}
								}
							}
						}
					}
				}
			}
		}
	}
}
MOTION
Frames: 11
Frame Time: 0.008333
18.475482 16.153602 2.531716 51.391843 -88.769000 13.249917 -8.005263 -0.736702 3.808640 -3.748310 -14.643031 -80.383143 -2.275854 -0.955361 22.083137 4.278792 13.269888 -14.517254 -0.216600 0.000001 -36.212600 7.863812 1.211948 5.075300 0.321178 11.937541 -82.287150 2.750467 0.035350 23.018931 -3.356019 -8.218353 -12.913990 -0.601800 0.000000 -57.636900 2.240749 -1.488941 -2.502546 -0.602971 -1.785739 -3.613292 -6.151200 -2.025427 0.121739 8.421466 -3.772225 -7.987665 -3.731608 -0.249087 -0.863917 0.000000 0.000000 0.000000 -4.198442 -0.008222 3.887773 -72.278108 2.889803 16.432087 -1.655709 -27.497942 -0.001178 0.787974 -1.162356 -0.008880 -0.012815 0.151347 -0.000000 0.000000 0.000000 0.000000 0.000000 0.000000 0.000000 19.826754 -2.339734 3.586843 72.828876 4.238041 -0.546739 1.621245 18.433323 0.003542 -0.250005 5.953669 -0.015067 0.036295 -0.203742 0.000000 0.000000 0.000000 0.000000 0.000000 0.000000 0.000000 
18.449143 16.060298 2.532918 56.481234 -88.582958 9.207541 -7.916908 -0.692786 3.987772 -3.408581 -15.328597 -82.679770 -2.220896 -0.753899 24.321743 4.466267 13.386690 -15.701733 -0.513000 -0.000000 -36.000800 7.955113 1.231045 5.264700 -0.382074 11.974457 -84.916250 2.621961 -0.356783 25.734226 -3.463719 -8.109792 -14.080458 -0.390000 -0.000000 -57.123101 2.160138 -1.538940 -2.822546 -0.615906 -1.846234 -3.697692 -6.122567 -2.089668 0.100095 8.439127 -3.881174 -8.116103 -3.710599 -0.245617 -0.914785 0.000000 0.000000 0.000000 -4.231123 -0.027818 3.932883 -71.956020 2.776031 16.997574 -1.660151 -27.874258 -0.000955 0.684094 -1.075765 -0.007170 -0.012798 0.155438 -0.000000 0.000000 0.000000 0.000000 0.000000 0.000000 0.000000 19.880756 -2.423367 3.624566 72.700887 4.194568 -0.037859 1.590788 18.722035 0.003583 -0.216187 6.064847 -0.013466 0.035020 -0.208162 0.000000 0.000000 0.000000 0.000000 0.000000 0.000000 0.000000 
18.422214 15.958511 2.533964 61.545096 -88.359067 5.169165 -7.841867 -0.662985 4.167514 -3.065814 -16.031409 -85.042001 -2.157229 -0.524444 26.738833 4.653496 13.463228 -16.986569 -0.846600 0.000000 -35.734400 8.040182 1.254798 5.449456 -1.132348 11.955090 -87.598661 2.473294 -0.773763 28.619515 -3.571250 -8.003092 -15.303764 -0.166000 0.000000 -56.543200 2.055755 -1.594080 -3.150466 -0.635488 -1.911587 -3.785200 -6.091910 -2.158805 0.077767 8.447603 -3.973272 -8.232149 -3.692285 -0.242524 -0.961238 0.000000 0.000000 0.000000 -4.277196 -0.076070 3.976870 -71.616019 2.679867 17.539170 -1.667283 -28.274745 -0.000691 0.570790 -0.978640 -0.005461 -0.012805 0.159362 -0.000000 0.000000 0.000000 0.000000 0.000000 0.000000 0.000000 19.936397 -2.495462 3.663651 72.589407 4.151351 0.380935 1.558082 19.034586 0.003567 -0.148359 5.954669 -0.009469 0.033244 -0.210337 0.000000 0.000000 0.000000 0.000000 0.000000 0.000000 0.000000 
18.394605 15.847696 2.534767 66.463812 -88.101926 1.250842 -7.779688 -0.645878 4.346062 -2.720890 -16.746847 -87.457917 -2.083068 -0.267332 29.325503 4.838927 13.502377 -18.365176 -1.214300 -0.000000 -35.375600 8.118374 1.289390 5.628454 -1.929081 11.877989 -90.318684 2.302663 -1.210847 31.665687 -3.678723 -7.904594 -16.581143 0.069799 -0.000000 -55.878100 1.923635 -1.653562 -3.484128 -0.663003 -1.980444 -3.873155 -6.058690 -2.231203 0.061013 8.449440 -4.072840 -8.345128 -3.675621 -0.239626 -1.005912 0.000000 0.000000 0.000000 -4.334066 -0.116420 4.018427 -71.257381 2.563101 18.094020 -1.678737 -28.670080 -0.000378 0.448438 -0.886721 -0.003850 -0.012961 0.163180 -0.000000 0.000000 0.000000 0.000000 0.000000 0.000000 0.000000 19.994470 -2.579626 3.701982 72.486489 4.126804 0.786317 1.524914 19.366799 0.003486 -0.064600 5.637581 -0.004573 0.031288 -0.210222 0.000000 0.000000 0.000000 0.000000 0.000000 0.000000 0.000000 
18.366635 15.727821 2.535442 71.030422 -87.823238 -2.351936 -7.729367 -0.640078 4.519794 -2.370990 -17.461598 -89.911124 -1.995929 0.017027 32.072328 5.019958 13.506740 -19.825280 -1.611300 0.000000 -34.892900 8.188248 1.340500 5.800420 -2.761969 11.750952 -93.047424 2.109523 -1.660444 34.847967 -3.787035 -7.825466 -17.902528 0.316200 0.000000 -55.123200 1.768482 -1.714089 -3.819273 -0.697996 -2.049272 -3.961383 -6.024910 -2.303296 0.046446 8.445327 -4.171955 -8.451673 -3.661061 -0.237004 -1.047692 0.000000 0.000000 0.000000 -4.402966 -0.159916 4.058161 -70.882378 2.440213 18.644699 -1.693944 -29.060458 -0.000010 0.314436 -0.811373 -0.002440 -0.013167 0.166928 -0.000000 0.000000 0.000000 0.000000 0.000000 0.000000 0.000000 20.051997 -2.666279 3.738393 72.386416 4.092750 1.199737 1.493603 19.727863 0.003397 0.027025 5.220716 0.000217 0.029295 -0.208884 0.000000 0.000000 0.000000 0.000000 0.000000 0.000000 0.000000 
18.337845 15.598974 2.536014 75.132962 -87.531452 -5.535064 -7.688205 -0.644775 4.684483 -2.014455 -18.165338 -92.381581 -1.893396 0.326007 34.963129 5.194603 13.485056 -21.346150 -2.029900 -0.000000 -34.265100 8.250166 1.412962 5.964079 -3.620409 11.579496 -95.756466 1.893908 -2.115378 38.140159 -3.896473 -7.774463 -19.257071 0.572501 0.000000 -54.278699 1.596038 -1.774179 -4.150182 -0.739232 -2.116396 -4.048051 -5.992253 -2.373331 0.034325 8.438851 -4.275782 -8.553694 -3.648635 -0.234633 -1.087177 0.000000 0.000000 0.000000 -4.483924 -0.198119 4.096172 -70.492063 2.300854 19.196831 -1.712777 -29.433368 0.000412 0.171669 -0.764230 -0.001128 -0.013437 0.170671 -0.000000 0.000000 0.000000 0.000000 0.000000 0.000000 0.000000 20.110277 -2.760221 3.770716 72.278125 4.044756 1.668916 1.466493 20.110407 0.003330 0.108310 4.822575 0.003913 0.027565 -0.207524 0.000000 0.000000 0.000000 0.000000 0.000000 0.000000 0.000000 
18.308629 15.461625 2.536718 78.631100 -87.240271 -8.169634 -7.653937 -0.661145 4.835353 -1.645493 -18.842105 -94.846660 -1.772559 0.656175 37.980507 5.360249 13.446258 -22.902698 -2.461800 -0.000000 -33.481699 8.303405 1.508317 6.118076 -4.485134 11.377234 -98.411255 1.657509 -2.567445 41.506672 -4.007778 -7.762065 -20.629801 0.837500 -0.000000 -53.360200 1.420627 -1.830511 -4.470390 -0.783370 -2.178792 -4.133469 -5.963480 -2.438435 0.017697 8.429436 -4.359019 -8.642875 -3.639945 -0.232735 -1.121991 0.000000 0.000000 0.000000 -4.583074 -0.257995 4.134134 -70.087914 2.173722 19.716775 -1.733405 -29.798331 0.000877 0.022858 -0.749255 0.000084 -0.013651 0.174445 -0.000000 0.000000 0.000000 0.000000 0.000000 0.000000 0.000000 20.167805 -2.834552 3.798507 72.157271 3.944500 2.170826 1.444514 20.522461 0.003323 0.174682 4.560059 0.006508 0.026129 -0.207538 0.000000 0.000000 0.000000 0.000000 0.000000 0.000000 0.000000 
18.278994 15.316411 2.537525 81.563338 -86.952496 -10.302577 -7.622979 -0.690815 4.968196 -1.265215 -19.488519 -97.281142 -1.631484 1.001472 41.097609 5.516045 13.407251 -24.463257 -2.897800 0.000000 -32.551100 8.348984 1.627701 6.260325 -5.345279 11.146553 -100.986899 1.401621 -3.011352 44.921335 -4.120002 -7.792321 -22.007323 1.110700 -0.000000 -52.384100 1.246325 -1.884744 -4.772050 -0.829107 -2.238031 -4.214110 -5.940077 -2.500069 0.000242 8.424645 -4.440658 -8.726355 -3.634566 -0.231181 -1.154402 0.000000 0.000000 0.000000 -4.697758 -0.315711 4.171750 -69.669291 2.025425 20.228953 -1.756170 -30.132491 0.001360 -0.121356 -0.769644 0.001297 -0.013971 0.178256 -0.000000 0.000000 0.000000 0.000000 0.000000 0.000000 0.000000 20.231005 -2.910054 3.818780 72.008286 3.814278 2.776863 1.429688 20.935973 0.003354 0.192565 4.564970 0.007310 0.025513 -0.210327 0.000000 0.000000 0.000000 0.000000 0.000000 0.000000 0.000000 
18.248921 15.164379 2.538692 83.863680 -86.684273 -11.877828 -7.594291 -0.738655 5.076685 -0.868244 -20.083888 -99.657990 -1.468160 1.356995 44.292456 5.659356 13.379119 -25.998062 -3.330000 0.000000 -31.498900 8.384876 1.767307 6.386910 -6.173105 10.908163 -103.445662 1.130630 -3.439562 48.341211 -4.233099 -7.870533 -23.374485 1.391600 -0.000000 -51.371000 1.090739 -1.931821 -5.042967 -0.871547 -2.289415 -4.286011 -5.921012 -2.553667 -0.016192 8.422333 -4.523156 -8.808681 -3.633838 -0.230024 -1.186171 0.000000 0.000000 0.000000 -4.840156 -0.369659 4.208322 -69.232107 1.835909 20.740339 -1.780221 -30.423901 0.001827 -0.251467 -0.818626 0.002511 -0.014487 0.182074 -0.000000 0.000000 0.000000 0.000000 0.000000 0.000000 0.000000 20.311328 -2.985369 3.840439 71.841124 3.724357 3.394963 1.417821 21.320362 0.003351 0.203453 4.519303 0.007712 0.025100 -0.212394 0.000000 0.000000 0.000000 0.000000 0.000000 0.000000 0.000000 
18.218016 15.005886 2.539716 85.796292 -86.407018 -13.156501 -7.563246 -0.800528 5.168119 -0.468102 -20.665694 -101.958848 -1.282698 1.711176 47.518805 5.795145 13.393096 -27.472543 -3.753600 -0.000000 -30.347401 8.417284 1.929897 6.502456 -6.991168 10.630808 -105.799581 0.841590 -3.854217 51.774230 -4.343730 -7.993511 -24.716716 1.678400 -0.000000 -50.375000 0.936545 -1.983163 -5.295120 -0.914791 -2.344233 -4.355506 -5.907435 -2.610968 -0.041104 8.420509 -4.532792 -8.868891 -3.642314 -0.229875 -1.210908 0.000000 0.000000 0.000000 -5.012822 -0.466110 4.248424 -68.770444 1.671440 21.200513 -1.805056 -30.705007 0.002250 -0.358897 -0.884639 0.003626 -0.015221 0.185860 -0.000000 0.000000 0.000000 0.000000 0.000000 0.000000 0.000000 20.414877 -2.993764 3.863165 71.673578 3.614215 3.895441 1.405465 21.676590 0.003379 0.236013 4.437749 0.008912 0.024258 -0.213947 0.000000 0.000000 0.000000 0.000000 0.000000 0.000000 0.000000 
18.186753 14.842762 2.541301 87.178956 -86.155744 -13.969418 -7.531269 -0.884191 5.232184 -0.053439 -21.190769 -104.158433 -1.074203 2.062022 50.764865 5.918483 13.448374 -28.867841 -4.164500 0.000000 -29.153300 8.440550 2.107121 6.598309 -7.750543 10.359196 -107.998391 0.543079 -4.246732 55.160561 -4.452734 -8.164484 -26.021983 1.971600 -0.000000 -49.406300 0.810777 -2.027665 -5.505575 -0.952195 -2.391973 -4.413803 -5.900216 -2.661181 -0.066909 8.425087 -4.530346 -8.925551 -3.657358 -0.230290 -1.234730 0.000000 0.000000 0.000000 -5.220409 -0.570958 4.288918 -68.287861 1.459753 21.644431 -1.829421 -30.930703 0.002582 -0.433242 -0.954460 0.004638 -0.016271 0.189439 -0.000000 0.000000 0.000000 0.000000 0.000000 0.000000 0.000000 20.547272 -2.990211 3.889189 71.485385 3.568127 4.368383 1.395364 21.963200 0.003403 0.271562 4.321715 0.010113 0.023405 -0.214880 0.000000 0.000000 0.000000 0.000000 0.000000 0.000000 0.000000 
